<svg width="48" height="22" viewBox="0 0 48 22" fill="none" xmlns="http://www.w3.org/2000/svg">
<path d="M7.41 21.3C6.05 21.3 4.81 21.05 3.69 20.55C2.59 20.03 1.66 19.28 0.9 18.3L2.82 16.38C3.28 17.08 3.91 17.64 4.71 18.06C5.51 18.46 6.4 18.66 7.38 18.66C8.3 18.66 9.09 18.49 9.75 18.15C10.43 17.79 10.96 17.29 11.34 16.65C11.74 16.01 11.94 15.27 11.94 14.43C11.94 13.57 11.74 12.83 11.34 12.21C10.96 11.57 10.42 11.08 9.72 10.74C9.02 10.4 8.19 10.23 7.23 10.23C6.87 10.23 6.51 10.26 6.15 10.32C5.79 10.36 5.44 10.43 5.1 10.53L6.3 8.91C6.68 8.73 7.09 8.59 7.53 8.49C7.97 8.39 8.41 8.34 8.85 8.34C9.97 8.34 10.97 8.6 11.85 9.12C12.75 9.64 13.46 10.37 13.98 11.31C14.52 12.25 14.79 13.34 14.79 14.58C14.79 15.9 14.47 17.07 13.83 18.09C13.21 19.09 12.35 19.88 11.25 20.46C10.15 21.02 8.87 21.3 7.41 21.3ZM5.1 10.53V8.82L11.19 1.89L14.55 1.86L8.28 8.97L5.1 10.53ZM1.89 2.7V0.18H14.55V1.86L12.09 2.7H1.89ZM23.9826 21.3C22.5626 21.3 21.2926 21.05 20.1726 20.55C19.0726 20.03 18.1426 19.28 17.3826 18.3L19.3026 16.38C19.7626 17.08 20.3926 17.64 21.1926 18.06C22.0126 18.46 22.9226 18.66 23.9226 18.66C24.8626 18.66 25.6826 18.48 26.3826 18.12C27.1026 17.76 27.6626 17.26 28.0626 16.62C28.4826 15.96 28.6926 15.18 28.6926 14.28C28.6926 13.36 28.4926 12.58 28.0926 11.94C27.6926 11.3 27.1526 10.82 26.4726 10.5C25.8126 10.16 25.0826 9.99 24.2826 9.99C23.4626 9.99 22.7126 10.09 22.0326 10.29C21.3726 10.49 20.7426 10.83 20.1426 11.31L20.1726 9.51C20.5126 9.09 20.9026 8.75 21.3426 8.49C21.7826 8.23 22.2826 8.03 22.8426 7.89C23.4026 7.75 24.0526 7.68 24.7926 7.68C26.2326 7.68 27.4526 7.98 28.4526 8.58C29.4526 9.18 30.2126 9.99 30.7326 11.01C31.2726 12.03 31.5426 13.17 31.5426 14.43C31.5426 15.75 31.2126 16.93 30.5526 17.97C29.9126 19.01 29.0226 19.83 27.8826 20.43C26.7426 21.01 25.4426 21.3 23.9826 21.3ZM20.1426 11.31L18.6126 9.78L19.5426 0.18H22.1226L21.0726 10.05L20.1426 11.31ZM20.1126 2.7L19.5426 0.18H30.4926V2.7H20.1126ZM34.943 12.18V9.75H47.663V12.18H34.943ZM40.073 4.29H42.563V17.64H40.073V4.29Z" fill="white"/>
</svg>
