<svg width="13" height="12" viewBox="0 0 13 12" fill="none" xmlns="http://www.w3.org/2000/svg">
<path d="M11.0889 3.32695C10.8469 3.32695 10.6104 3.25785 10.4092 3.1284C10.208 2.99895 10.0512 2.81495 9.9586 2.59967C9.866 2.3844 9.8418 2.14752 9.889 1.91898C9.9362 1.69045 10.0527 1.48053 10.2238 1.31576C10.3949 1.151 10.6129 1.0388 10.8502 0.993342C11.0875 0.947882 11.3335 0.971213 11.5571 1.06038C11.7806 1.14955 11.9717 1.30055 12.1062 1.49429C12.2406 1.68804 12.3123 1.91581 12.3123 2.14882C12.3127 2.30363 12.2813 2.45698 12.2199 2.60007C12.1586 2.74315 12.0685 2.87316 11.9548 2.98263C11.8411 3.09209 11.7061 3.17886 11.5575 3.23795C11.4089 3.29704 11.2497 3.32728 11.0889 3.32695ZM5.78749 4.11209C6.4328 4.11209 7.0636 4.29635 7.6001 4.64158C8.1367 4.9868 8.5548 5.47749 8.8018 6.05158C9.0487 6.62567 9.1133 7.25734 8.9874 7.86684C8.8616 8.47624 8.5508 9.03614 8.0945 9.47544C7.6382 9.91484 7.0569 10.2141 6.424 10.3353C5.79111 10.4565 5.1351 10.3943 4.53893 10.1565C3.94276 9.91874 3.4332 9.51604 3.0747 8.99934C2.71619 8.48274 2.52484 7.87524 2.52484 7.25394C2.52577 6.42091 2.86981 5.62229 3.48147 5.03328C4.09314 4.44427 4.92247 4.11298 5.78749 4.11209ZM5.78749 2.54139C4.8196 2.54139 3.87344 2.81778 3.06867 3.33559C2.26389 3.85341 1.63665 4.5894 1.26625 5.4505C0.895858 6.31159 0.798948 7.25914 0.987768 8.17324C1.1766 9.08744 1.64268 9.92704 2.32709 10.5861C3.01149 11.2451 3.88347 11.694 4.83277 11.8758C5.78206 12.0576 6.766 11.9643 7.6602 11.6076C8.5545 11.251 9.3188 10.6469 9.8565 9.87204C10.3942 9.09704 10.6812 8.18594 10.6812 7.25394C10.6812 6.00406 10.1656 4.80542 9.2479 3.92165C8.3301 3.03789 7.0854 2.54139 5.78749 2.54139Z" fill="#1F2732"/>
</svg>
